<?xml version="1.0" encoding="UTF-8" standalone="no"?>
<!-- Created with Inkscape (http://www.inkscape.org/) -->

<svg
   width="99.998375mm"
   height="99.998398mm"
   viewBox="0 0 99.998375 99.998398"
   version="1.1"
   id="svg1"
   inkscape:export-filename="logo-icon.png"
   inkscape:export-xdpi="96"
   inkscape:export-ydpi="96"
   xmlns:inkscape="http://www.inkscape.org/namespaces/inkscape"
   xmlns:sodipodi="http://sodipodi.sourceforge.net/DTD/sodipodi-0.dtd"
   xmlns="http://www.w3.org/2000/svg"
   xmlns:svg="http://www.w3.org/2000/svg">
  <sodipodi:namedview
     id="namedview1"
     pagecolor="#ffffff"
     bordercolor="#000000"
     borderopacity="0.25"
     inkscape:showpageshadow="2"
     inkscape:pageopacity="0.0"
     inkscape:pagecheckerboard="0"
     inkscape:deskcolor="#d1d1d1"
     inkscape:document-units="mm">
    <inkscape:page
       x="0"
       y="-4.4998361e-13"
       width="99.998375"
       height="99.99839"
       id="page2"
       margin="0"
       bleed="0" />
  </sodipodi:namedview>
  <defs
     id="defs1">
    <inkscape:path-effect
       effect="fillet_chamfer"
       id="path-effect1"
       is_visible="true"
       lpeversion="1"
       nodesatellites_param="F,0,0,1,0,15.697339,0,1 @ F,0,0,1,0,15.027045,0,1 @ F,0,0,1,0,14.021603,0,1 @ F,0,0,1,0,13.686457,0,1"
       radius="0"
       unit="px"
       method="auto"
       mode="F"
       chamfer_steps="1"
       flexible="false"
       use_knot_distance="true"
       apply_no_radius="true"
       apply_with_radius="true"
       only_selected="false"
       hide_knots="false" />
    <clipPath
       clipPathUnits="userSpaceOnUse"
       id="clipPath128">
      <path
         d="M 0,283.46 H 283.46 V 0 H 0 Z"
         transform="translate(-97.307302,-136.27511)"
         id="path128" />
    </clipPath>
  </defs>
  <g
     inkscape:label="Capa 1"
     inkscape:groupmode="layer"
     id="layer1"
     transform="translate(-69.252596,-83.025913)">
    <path
       id="path126"
       d="m 84.949936,183.02429 h 69.273994 a 15.027045,15.027045 135 0 0 15.02705,-15.02704 l 0,-70.949739 A 14.021603,14.021603 45 0 0 155.22938,83.025908 H 82.939054 A 13.686457,13.686457 135 0 0 69.252597,96.712365 v 70.614585 a 15.697339,15.697339 45 0 0 15.697339,15.69734 z"
       style="fill:#5e1211;fill-opacity:1;fill-rule:nonzero;stroke:none;stroke-width:0.352778"
       inkscape:path-effect="#path-effect1"
       inkscape:original-d="M 69.252597,183.02429 H 169.25098 V 83.025908 H 69.252597 Z" />
    <path
       id="path127"
       d="M 0,0 C 19.968,24.648 48.729,25.53 66.946,15.989 64.715,13.469 61.996,11.632 59.347,9.706 58.378,9.001 57.543,9.553 56.637,9.809 29.369,17.499 4.591,1.768 0.177,-26.104 c -0.301,-1.901 -0.975,-2.408 -2.833,-2.43 -7.298,-0.086 -7.299,-0.154 -7.296,6.998 0.018,34.341 0.042,68.681 0.037,103.022 0,1.64 0.175,3.043 1.357,4.391 C 20.864,119.459 73.688,112.588 92.235,73.331 102.291,52.043 97.43,26.539 80.231,8.97 71.778,0.336 61.699,-6.01 51.377,-12.051 c -8.098,-4.74 -16.237,-9.43 -23.221,-15.799 -7.78,-7.096 -13.413,-15.399 -14.6,-26.192 -1.857,-16.896 11.119,-32.054 28.169,-32.547 18.809,-0.543 31.678,9.208 40.598,24.747 11.09,19.316 8.636,42.072 -5.897,58.936 -1.114,1.293 -1.563,2.142 0.152,3.176 0.719,0.434 1.306,1.092 1.943,1.66 3.937,3.512 3.936,3.513 7.226,-0.565 24.792,-30.735 12.765,-79.074 -23.434,-94.185 -18.955,-7.913 -40.074,-2.728 -51.255,12.581 -10.529,14.418 -9.897,33.94 1.625,49.817 6.71,9.247 15.69,15.869 25.279,21.775 7.53,4.639 15.342,8.82 22.619,13.87 11.092,7.698 20.232,17.002 24.684,30.135 C 93.823,60.605 78.54,88.56 52.045,95.687 33.073,100.791 16.464,95.931 2.072,82.847 0.815,81.704 -0.218,80.55 -0.211,78.54 -0.129,52.945 -0.142,27.349 -0.126,1.754 -0.126,1.364 -0.072,0.975 0,0"
       style="fill:#bfb2a0;fill-opacity:1;fill-rule:nonzero;stroke:none;stroke-width:0.839431"
       transform="matrix(0.4236598,0,0,-0.41688349,101.64004,134.74353)"
       clip-path="url(#clipPath128)" />
  </g>
</svg>
