<?xml version="1.0" encoding="UTF-8" standalone="no"?>
<!-- Created with Inkscape (http://www.inkscape.org/) -->

<svg
   width="285.43884mm"
   height="78.54361mm"
   viewBox="0 4 86.494968 23.800639"
   version="1.1"
   id="svg1"
   inkscape:export-filename="../Desktop/bozzano-project/nextjs15-authjs-login/public/images/Desktop/bozzano-project/nextjs15-authjs-login/public/images/Desktop/bozzano-project/nextjs15-authjs-login/public/images/logo/logo.svg"
   inkscape:export-xdpi="96"
   inkscape:export-ydpi="96"
   inkscape:version="1.4 (e7c3feb1, 2024-10-09)"
   sodipodi:docname="logo-dark.svg"
   xmlns:inkscape="http://www.inkscape.org/namespaces/inkscape"
   xmlns:sodipodi="http://sodipodi.sourceforge.net/DTD/sodipodi-0.dtd"
   xmlns="http://www.w3.org/2000/svg"
   xmlns:svg="http://www.w3.org/2000/svg">
  <sodipodi:namedview
     id="namedview1"
     pagecolor="#ffffff"
     bordercolor="#000000"
     borderopacity="0.09019608"
     inkscape:showpageshadow="2"
     inkscape:pageopacity="0.0"
     inkscape:pagecheckerboard="false"
     inkscape:deskcolor="#d1d1d1"
     inkscape:document-units="mm"
     inkscape:clip-to-page="false"
     labelstyle="default"
     inkscape:antialias-rendering="true"
     showgrid="true"
     inkscape:zoom="0.73277585"
     inkscape:cx="661.18445"
     inkscape:cy="388.93203"
     inkscape:window-width="1800"
     inkscape:window-height="1023"
     inkscape:window-x="0"
     inkscape:window-y="44"
     inkscape:window-maximized="1"
     inkscape:current-layer="layer1"
     inkscape:export-bgcolor="#ffffff00" />
  <defs
     id="defs1">
    <clipPath
       clipPathUnits="userSpaceOnUse"
       id="clipPath131">
      <path
         d="M 0,283.46 H 283.46 V 0 H 0 Z"
         transform="translate(-42.311026,-145.1726)"
         id="path131" />
    </clipPath>
    <clipPath
       clipPathUnits="userSpaceOnUse"
       id="clipPath133">
      <path
         d="M 0,283.46 H 283.46 V 0 H 0 Z"
         transform="translate(-92.038277,-141.5411)"
         id="path133" />
    </clipPath>
    <clipPath
       clipPathUnits="userSpaceOnUse"
       id="clipPath135">
      <path
         d="M 0,283.46 H 283.46 V 0 H 0 Z"
         transform="translate(-111.3927,-139.90241)"
         id="path135" />
    </clipPath>
    <clipPath
       clipPathUnits="userSpaceOnUse"
       id="clipPath137">
      <path
         d="M 0,283.46 H 283.46 V 0 H 0 Z"
         transform="translate(-134.11538,-139.90241)"
         id="path137" />
    </clipPath>
    <clipPath
       clipPathUnits="userSpaceOnUse"
       id="clipPath139">
      <path
         d="M 0,283.46 H 283.46 V 0 H 0 Z"
         transform="translate(-170.09978,-146.11631)"
         id="path139" />
    </clipPath>
    <clipPath
       clipPathUnits="userSpaceOnUse"
       id="clipPath141">
      <path
         d="M 0,283.46 H 283.46 V 0 H 0 Z"
         transform="translate(-185.65058,-160.1514)"
         id="path141" />
    </clipPath>
    <clipPath
       clipPathUnits="userSpaceOnUse"
       id="clipPath143">
      <path
         d="M 0,283.46 H 283.46 V 0 H 0 Z"
         transform="translate(-225.31561,-141.5411)"
         id="path143" />
    </clipPath>
    <clipPath
       clipPathUnits="userSpaceOnUse"
       id="clipPath145">
      <path
         d="M 0,283.46 H 283.46 V 0 H 0 Z"
         transform="translate(-86.801927,-121.53131)"
         id="path145" />
    </clipPath>
    <clipPath
       clipPathUnits="userSpaceOnUse"
       id="clipPath147">
      <path
         d="M 0,283.46 H 283.46 V 0 H 0 Z"
         transform="translate(-88.396727,-128.0772)"
         id="path147" />
    </clipPath>
    <clipPath
       clipPathUnits="userSpaceOnUse"
       id="clipPath149">
      <path
         d="M 0,283.46 H 283.46 V 0 H 0 Z"
         transform="translate(-100.90148,-120.7784)"
         id="path149" />
    </clipPath>
    <clipPath
       clipPathUnits="userSpaceOnUse"
       id="clipPath151">
      <path
         d="M 0,283.46 H 283.46 V 0 H 0 Z"
         transform="translate(-102.4377,-128.0772)"
         id="path151" />
    </clipPath>
    <clipPath
       clipPathUnits="userSpaceOnUse"
       id="clipPath153">
      <path
         d="M 0,283.46 H 283.46 V 0 H 0 Z"
         transform="translate(-111.79118,-123.9776)"
         id="path153" />
    </clipPath>
    <clipPath
       clipPathUnits="userSpaceOnUse"
       id="clipPath155">
      <path
         d="M 0,283.46 H 283.46 V 0 H 0 Z"
         transform="translate(-115.48058,-124.53521)"
         id="path155" />
    </clipPath>
    <clipPath
       clipPathUnits="userSpaceOnUse"
       id="clipPath157">
      <path
         d="M 0,283.46 H 283.46 V 0 H 0 Z"
         transform="translate(-126.9582,-124.53521)"
         id="path157" />
    </clipPath>
    <clipPath
       clipPathUnits="userSpaceOnUse"
       id="clipPath159">
      <path
         d="M 0,283.46 H 283.46 V 0 H 0 Z"
         transform="translate(-133.97378,-128.0772)"
         id="path159" />
    </clipPath>
    <clipPath
       clipPathUnits="userSpaceOnUse"
       id="clipPath161">
      <path
         d="M 0,283.46 H 283.46 V 0 H 0 Z"
         transform="translate(-140.42198,-124.53521)"
         id="path161" />
    </clipPath>
    <clipPath
       clipPathUnits="userSpaceOnUse"
       id="clipPath163">
      <path
         d="M 0,283.46 H 283.46 V 0 H 0 Z"
         transform="translate(-151.4103,-123.9776)"
         id="path163" />
    </clipPath>
    <clipPath
       clipPathUnits="userSpaceOnUse"
       id="clipPath165">
      <path
         d="M 0,283.46 H 283.46 V 0 H 0 Z"
         transform="translate(-157.85858,-123.9776)"
         id="path165" />
    </clipPath>
    <clipPath
       clipPathUnits="userSpaceOnUse"
       id="clipPath167">
      <path
         d="M 0,283.46 H 283.46 V 0 H 0 Z"
         id="path167" />
    </clipPath>
    <clipPath
       clipPathUnits="userSpaceOnUse"
       id="clipPath169">
      <path
         d="M 0,283.46 H 283.46 V 0 H 0 Z"
         transform="translate(-170.27558,-120.7784)"
         id="path169" />
    </clipPath>
    <clipPath
       clipPathUnits="userSpaceOnUse"
       id="clipPath171">
      <path
         d="M 0,283.46 H 283.46 V 0 H 0 Z"
         transform="translate(-172.87808,-124.53521)"
         id="path171" />
    </clipPath>
    <clipPath
       clipPathUnits="userSpaceOnUse"
       id="clipPath173">
      <path
         d="M 0,283.46 H 283.46 V 0 H 0 Z"
         transform="translate(-184.923,-123.6836)"
         id="path173" />
    </clipPath>
    <clipPath
       clipPathUnits="userSpaceOnUse"
       id="clipPath175">
      <path
         d="M 0,283.46 H 283.46 V 0 H 0 Z"
         transform="translate(-190.23548,-128.0772)"
         id="path175" />
    </clipPath>
    <clipPath
       clipPathUnits="userSpaceOnUse"
       id="clipPath177">
      <path
         d="M 0,283.46 H 283.46 V 0 H 0 Z"
         transform="translate(-196.9767,-123.6836)"
         id="path177" />
    </clipPath>
    <clipPath
       clipPathUnits="userSpaceOnUse"
       id="clipPath179">
      <path
         d="M 0,283.46 H 283.46 V 0 H 0 Z"
         transform="translate(-208.85468,-120.7784)"
         id="path179" />
    </clipPath>
    <clipPath
       clipPathUnits="userSpaceOnUse"
       id="clipPath181">
      <path
         d="M 0,283.46 H 283.46 V 0 H 0 Z"
         transform="translate(-210.39083,-121.00301)"
         id="path181" />
    </clipPath>
    <clipPath
       clipPathUnits="userSpaceOnUse"
       id="clipPath183">
      <path
         d="M 0,283.46 H 283.46 V 0 H 0 Z"
         transform="translate(-218.99138,-123.6836)"
         id="path183" />
    </clipPath>
    <clipPath
       clipPathUnits="userSpaceOnUse"
       id="clipPath185">
      <path
         d="M 0,283.46 H 283.46 V 0 H 0 Z"
         transform="translate(-225.69353,-121.9131)"
         id="path185" />
    </clipPath>
    <clipPath
       clipPathUnits="userSpaceOnUse"
       id="clipPath187">
      <path
         d="M 0,283.46 H 283.46 V 0 H 0 Z"
         transform="translate(-232.64963,-124.53521)"
         id="path187" />
    </clipPath>
  </defs>
  <g
     inkscape:label="Capa 1"
     inkscape:groupmode="layer"
     id="layer1"
     transform="translate(-0.350654,-24.345314)"><path
   id="path129"
   d="m -1.5634776,55.308846 90.2068236,0.119496 c 6.569181,-12.168434 5.721417,-20.777368 0,-29.698857 L -2.463817,25.609988 c -3.652597,8.414027 -3.6896953,22.900376 0.9003394,29.698858 z"
   style="fill:#370000;fill-opacity:0.98400003;fill-rule:nonzero;stroke:none;stroke-width:0.164581;opacity:1"
   sodipodi:nodetypes="ccccc" />
<path
   id="path130"
   d="M 0,0 C 5.821,7.185 14.204,7.442 19.515,4.661 18.864,3.926 18.072,3.391 17.3,2.829 17.017,2.624 16.774,2.785 16.509,2.859 8.561,5.101 1.338,0.515 0.052,-7.609 c -0.088,-0.554 -0.285,-0.702 -0.826,-0.708 -2.128,-0.026 -2.128,-0.045 -2.127,2.039 0.005,10.011 0.012,20.021 0.011,30.031 0,0.478 0.051,0.887 0.395,1.28 8.577,9.789 23.975,7.786 29.381,-3.657 2.932,-6.206 1.515,-13.64 -3.499,-18.761 -2.464,-2.517 -5.402,-4.367 -8.411,-6.128 -2.36,-1.382 -4.733,-2.749 -6.769,-4.605 -2.268,-2.069 -3.909,-4.489 -4.255,-7.635 -0.542,-4.925 3.241,-9.344 8.211,-9.487 5.483,-0.159 9.234,2.684 11.834,7.213 3.232,5.631 2.517,12.264 -1.719,17.18 -0.325,0.377 -0.456,0.624 0.044,0.926 0.21,0.126 0.381,0.318 0.567,0.483 1.147,1.024 1.147,1.025 2.106,-0.164 7.227,-8.959 3.721,-23.05 -6.831,-27.455 -5.525,-2.306 -11.681,-0.795 -14.941,3.668 -3.069,4.202 -2.884,9.893 0.474,14.521 1.956,2.695 4.574,4.626 7.369,6.348 2.195,1.352 4.472,2.57 6.593,4.043 3.233,2.243 5.898,4.955 7.195,8.784 2.495,7.359 -1.96,15.508 -9.683,17.586 C 9.641,29.38 4.799,27.964 0.604,24.15 0.238,23.816 -0.063,23.48 -0.062,22.894 -0.038,15.433 -0.041,7.972 -0.037,0.511 -0.037,0.398 -0.021,0.284 0,0"
   style="fill:#918a6f;fill-opacity:1;fill-rule:nonzero;stroke:none;stroke-width:1.00477"
   transform="matrix(0.39759319,0,0,-0.36544536,3.7840815,40.976937)"
   clip-path="url(#clipPath131)" />
<path
   id="path132"
   d="m 0,0 c 4.421,0 8.037,3.586 8.037,8.007 0,4.389 -3.616,8.069 -8.037,8.069 -4.39,0 -8.007,-3.68 -8.007,-8.069 C -8.007,3.586 -4.39,0 0,0 m 0,19.167 c 6.183,0 11.129,-4.977 11.129,-11.16 C 11.129,1.824 6.183,-3.092 0,-3.092 c -6.183,0 -11.099,4.916 -11.099,11.099 0,6.183 4.916,11.16 11.099,11.16"
   style="fill:#ffffff;fill-opacity:1;fill-rule:nonzero;stroke:none;stroke-width:0.882817"
   transform="matrix(0.42865656,0,0,-0.43908169,22.894271,42.782876)"
   clip-path="url(#clipPath133)" />
<path
   id="path134"
   d="m 0,0 10.201,17.405 v 0.124 H 1.483 c -0.308,0 -0.587,0.278 -0.587,0.587 v 1.793 c 0,0.309 0.279,0.588 0.587,0.588 h 12.706 c 0.31,0 0.587,-0.279 0.587,-0.588 V 19.507 L 4.544,1.824 V 1.793 h 9.027 c 0.34,0 0.587,-0.278 0.587,-0.587 v -1.763 c 0,-0.308 -0.247,-0.587 -0.587,-0.587 H 0.587 C 0.278,-1.144 0,-0.865 0,-0.557 Z"
   style="fill:#ffffff;fill-opacity:1;fill-rule:nonzero;stroke:none;stroke-width:0.882817"
   transform="matrix(0.42865656,0,0,-0.43908169,31.190665,43.502405)"
   clip-path="url(#clipPath135)" />
<path
   id="path136"
   d="m 0,0 10.201,17.405 v 0.124 H 1.483 c -0.308,0 -0.587,0.278 -0.587,0.587 v 1.793 c 0,0.309 0.279,0.588 0.587,0.588 h 12.706 c 0.31,0 0.587,-0.279 0.587,-0.588 V 19.507 L 4.544,1.824 V 1.793 h 9.027 c 0.34,0 0.587,-0.278 0.587,-0.587 v -1.763 c 0,-0.308 -0.247,-0.587 -0.587,-0.587 H 0.587 C 0.278,-1.144 0,-0.865 0,-0.557 Z"
   style="fill:#ffffff;fill-opacity:1;fill-rule:nonzero;stroke:none;stroke-width:0.882817"
   transform="matrix(0.42865656,0,0,-0.43908169,40.930894,43.502405)"
   clip-path="url(#clipPath137)" />
<path
   id="path138"
   d="M 0,0 -3.802,8.471 H -3.957 L -7.729,0 Z m -14.004,-6.554 9.49,20.805 c 0.093,0.186 0.371,0.341 0.527,0.341 h 0.308 c 0.155,0 0.433,-0.155 0.526,-0.341 L 6.275,-6.554 C 6.461,-6.955 6.214,-7.357 5.75,-7.357 H 3.803 c -0.371,0 -0.587,0.185 -0.711,0.463 L 1.175,-2.658 H -8.934 c -0.619,-1.423 -1.267,-2.814 -1.885,-4.236 -0.093,-0.216 -0.341,-0.463 -0.712,-0.463 h -1.948 c -0.463,0 -0.71,0.402 -0.525,0.803"
   style="fill:#ffffff;fill-opacity:1;fill-rule:nonzero;stroke:none;stroke-width:0.882817"
   transform="matrix(0.42865656,0,0,-0.43908169,56.355854,40.773988)"
   clip-path="url(#clipPath139)" />
<path
   id="path140"
   d="M 0,0 C 0,0.309 0.278,0.557 0.587,0.557 H 1.36 l 13.416,-15.519 h 0.032 V -0.34 c 0,0.309 0.247,0.588 0.587,0.588 h 1.978 c 0.31,0 0.588,-0.279 0.588,-0.588 v -20.806 c 0,-0.308 -0.278,-0.556 -0.588,-0.556 H 16.569 L 3.153,-5.75 H 3.122 v -15.056 c 0,-0.308 -0.247,-0.587 -0.588,-0.587 H 0.587 C 0.278,-21.393 0,-21.114 0,-20.806 Z"
   style="fill:#ffffff;fill-opacity:1;fill-rule:nonzero;stroke:none;stroke-width:0.882817"
   transform="matrix(0.42865656,0,0,-0.43908169,63.021797,34.611445)"
   clip-path="url(#clipPath141)" />
<path
   id="path142"
   d="m 0,0 c 4.421,0 8.037,3.586 8.037,8.007 0,4.389 -3.616,8.069 -8.037,8.069 -4.39,0 -8.007,-3.68 -8.007,-8.069 C -8.007,3.586 -4.39,0 0,0 m 0,19.167 c 6.183,0 11.129,-4.977 11.129,-11.16 C 11.129,1.824 6.183,-3.092 0,-3.092 c -6.183,0 -11.099,4.916 -11.099,11.099 0,6.183 4.916,11.16 11.099,11.16"
   style="fill:#ffffff;fill-opacity:1;fill-rule:nonzero;stroke:none;stroke-width:0.882817"
   transform="matrix(0.42865656,0,0,-0.43908169,80.024472,42.782876)"
   clip-path="url(#clipPath143)" />
<path
   id="path144"
   d="m 0,0 c -0.117,-0.078 -0.277,-0.166 -0.479,-0.264 -0.203,-0.098 -0.439,-0.179 -0.709,-0.245 -0.271,-0.065 -0.57,-0.097 -0.896,-0.097 -0.541,0.006 -1.032,0.104 -1.473,0.293 -0.44,0.189 -0.815,0.447 -1.125,0.773 -0.309,0.326 -0.546,0.703 -0.709,1.13 -0.163,0.428 -0.245,0.883 -0.245,1.365 0,0.528 0.085,1.016 0.255,1.463 0.169,0.446 0.412,0.835 0.729,1.164 0.316,0.329 0.688,0.586 1.115,0.769 0.428,0.182 0.895,0.273 1.404,0.273 0.424,0 0.809,-0.057 1.154,-0.171 0.346,-0.114 0.643,-0.246 0.891,-0.396 L -0.47,5.156 c -0.195,0.138 -0.433,0.265 -0.714,0.382 -0.28,0.117 -0.587,0.176 -0.92,0.176 -0.345,0 -0.671,-0.068 -0.978,-0.205 C -3.389,5.372 -3.659,5.18 -3.894,4.932 -4.129,4.684 -4.313,4.396 -4.447,4.07 c -0.133,-0.326 -0.2,-0.681 -0.2,-1.066 0,-0.378 0.06,-0.733 0.18,-1.062 0.121,-0.329 0.294,-0.616 0.519,-0.861 0.225,-0.244 0.498,-0.435 0.817,-0.572 0.319,-0.137 0.679,-0.205 1.076,-0.205 0.36,0 0.679,0.054 0.959,0.166 0.281,0.11 0.512,0.234 0.696,0.372 z"
   style="fill:#ffffff;fill-opacity:1;fill-rule:nonzero;stroke:none"
   transform="matrix(0.40755522,0,0,-0.35992265,22.100122,49.188584)"
   clip-path="url(#clipPath145)" />
<path
   id="path146"
   d="M 0,0 H 4.599 V -0.91 H 0.949 V -3.063 H 4.207 V -3.982 H 0.949 v -2.182 h 3.786 v -0.91 H 0 Z"
   style="fill:#ffffff;fill-opacity:1;fill-rule:nonzero;stroke:none"
   transform="matrix(0.40755522,0,0,-0.35992265,22.750088,46.832564)"
   clip-path="url(#clipPath147)" />
<path
   id="path148"
   d="m 0,0 -5.47,5.548 0.275,-0.069 0.019,-5.254 h -0.949 v 7.289 h 0.049 L -0.675,1.946 -0.891,1.996 -0.91,7.299 H 0.039 V 0 Z"
   style="fill:#ffffff;fill-opacity:1;fill-rule:nonzero;stroke:none"
   transform="matrix(0.40755522,0,0,-0.35992265,27.846468,49.459564)"
   clip-path="url(#clipPath149)" />
<path
   id="path150"
   d="M 0,0 H 4.706 V -0.91 H 2.809 V -7.074 H 1.859 V -0.91 H 0 Z"
   style="fill:#ffffff;fill-opacity:1;fill-rule:nonzero;stroke:none"
   transform="matrix(0.40755522,0,0,-0.35992265,28.472568,46.832564)"
   clip-path="url(#clipPath151)" />
<path
   id="path152"
   d="M 0,0 1.85,-2.975 H 0.754 l -1.889,2.946 z m -1.164,0.548 c 0.28,0 0.514,0.042 0.699,0.127 0.187,0.085 0.331,0.194 0.436,0.328 0.104,0.134 0.179,0.275 0.225,0.426 0.045,0.149 0.069,0.297 0.069,0.44 0,0.143 -0.025,0.29 -0.074,0.44 -0.048,0.15 -0.128,0.292 -0.235,0.425 -0.107,0.134 -0.248,0.244 -0.421,0.329 -0.173,0.084 -0.383,0.126 -0.631,0.126 H -2.191 V 0.548 Z M -1.262,4.1 c 0.359,0 0.69,-0.048 0.993,-0.142 C 0.034,3.863 0.299,3.723 0.523,3.537 0.749,3.352 0.925,3.121 1.052,2.848 1.18,2.573 1.243,2.26 1.243,1.908 1.243,1.627 1.202,1.354 1.12,1.086 1.039,0.818 0.905,0.575 0.72,0.357 0.533,0.139 0.289,-0.038 -0.015,-0.171 -0.317,-0.305 -0.694,-0.372 -1.145,-0.372 h -1.046 v -2.603 h -0.95 V 4.1 Z"
   style="fill:#ffffff;fill-opacity:1;fill-rule:nonzero;stroke:none"
   transform="matrix(0.40755522,0,0,-0.35992265,32.284628,48.308104)"
   clip-path="url(#clipPath153)" />
<path
   id="path154"
   d="M 0,0 C 0,-0.378 0.066,-0.729 0.2,-1.052 0.334,-1.375 0.523,-1.66 0.769,-1.908 1.013,-2.156 1.293,-2.35 1.609,-2.49 1.926,-2.631 2.271,-2.7 2.642,-2.7 c 0.372,0 0.715,0.069 1.032,0.21 0.316,0.14 0.594,0.333 0.832,0.577 0.238,0.245 0.426,0.53 0.562,0.856 0.137,0.327 0.206,0.675 0.206,1.047 0,0.378 -0.069,0.731 -0.206,1.057 C 4.932,1.373 4.744,1.662 4.506,1.913 4.268,2.164 3.987,2.359 3.664,2.5 3.342,2.641 2.997,2.71 2.632,2.71 2.261,2.71 1.913,2.639 1.59,2.495 1.268,2.352 0.986,2.156 0.749,1.908 0.511,1.66 0.326,1.371 0.195,1.042 0.065,0.713 0,0.365 0,0 m -0.979,0 c 0,0.489 0.093,0.952 0.28,1.39 0.185,0.436 0.445,0.823 0.777,1.159 C 0.411,2.885 0.794,3.147 1.229,3.337 1.662,3.525 2.13,3.62 2.632,3.62 3.121,3.62 3.584,3.525 4.021,3.337 4.458,3.147 4.845,2.885 5.181,2.549 5.517,2.213 5.779,1.826 5.969,1.39 6.158,0.952 6.252,0.486 6.252,-0.01 6.252,-0.506 6.158,-0.972 5.969,-1.409 5.779,-1.846 5.519,-2.229 5.186,-2.559 4.854,-2.888 4.468,-3.146 4.031,-3.332 3.594,-3.518 3.128,-3.61 2.632,-3.61 c -0.502,0 -0.97,0.09 -1.403,0.273 -0.435,0.183 -0.818,0.44 -1.151,0.769 -0.332,0.329 -0.592,0.711 -0.777,1.144 -0.187,0.434 -0.28,0.908 -0.28,1.424"
   style="fill:#ffffff;fill-opacity:1;fill-rule:nonzero;stroke:none"
   transform="matrix(0.40755522,0,0,-0.35992265,33.788258,48.107414)"
   clip-path="url(#clipPath155)" />
<path
   id="path156"
   d="M 0,0 C 0,-0.378 0.066,-0.729 0.2,-1.052 0.334,-1.375 0.523,-1.66 0.769,-1.908 1.013,-2.156 1.293,-2.35 1.609,-2.49 1.926,-2.631 2.271,-2.7 2.642,-2.7 c 0.372,0 0.715,0.069 1.032,0.21 0.316,0.14 0.594,0.333 0.832,0.577 0.238,0.245 0.426,0.53 0.562,0.856 0.137,0.327 0.206,0.675 0.206,1.047 0,0.378 -0.069,0.731 -0.206,1.057 C 4.932,1.373 4.744,1.662 4.506,1.913 4.268,2.164 3.987,2.359 3.664,2.5 3.342,2.641 2.997,2.71 2.632,2.71 2.261,2.71 1.913,2.639 1.59,2.495 1.268,2.352 0.986,2.156 0.749,1.908 0.511,1.66 0.326,1.371 0.195,1.042 0.065,0.713 0,0.365 0,0 m -0.979,0 c 0,0.489 0.093,0.952 0.28,1.39 0.185,0.436 0.445,0.823 0.777,1.159 C 0.411,2.885 0.794,3.147 1.229,3.337 1.662,3.525 2.13,3.62 2.632,3.62 3.121,3.62 3.584,3.525 4.021,3.337 4.458,3.147 4.845,2.885 5.181,2.549 5.517,2.213 5.779,1.826 5.969,1.39 6.158,0.952 6.252,0.486 6.252,-0.01 6.252,-0.506 6.158,-0.972 5.969,-1.409 5.779,-1.846 5.519,-2.229 5.186,-2.559 4.854,-2.888 4.468,-3.146 4.031,-3.332 3.594,-3.518 3.128,-3.61 2.632,-3.61 c -0.502,0 -0.97,0.09 -1.403,0.273 -0.435,0.183 -0.818,0.44 -1.151,0.769 -0.332,0.329 -0.592,0.711 -0.777,1.144 -0.187,0.434 -0.28,0.908 -0.28,1.424"
   style="fill:#ffffff;fill-opacity:1;fill-rule:nonzero;stroke:none"
   transform="matrix(0.40755522,0,0,-0.35992265,38.466028,48.107414)"
   clip-path="url(#clipPath157)" />
<path
   id="path158"
   d="M 0,0 H 4.706 V -0.91 H 2.809 V -7.074 H 1.859 V -0.91 H 0 Z"
   style="fill:#ffffff;fill-opacity:1;fill-rule:nonzero;stroke:none"
   transform="matrix(0.40755522,0,0,-0.35992265,41.325258,46.832564)"
   clip-path="url(#clipPath159)" />
<path
   id="path160"
   d="M 0,0 C 0,-0.378 0.066,-0.729 0.2,-1.052 0.334,-1.375 0.523,-1.66 0.769,-1.908 1.013,-2.156 1.293,-2.35 1.609,-2.49 1.926,-2.631 2.271,-2.7 2.642,-2.7 c 0.372,0 0.715,0.069 1.032,0.21 0.316,0.14 0.594,0.333 0.832,0.577 0.238,0.245 0.426,0.53 0.562,0.856 0.137,0.327 0.206,0.675 0.206,1.047 0,0.378 -0.069,0.731 -0.206,1.057 C 4.932,1.373 4.744,1.662 4.506,1.913 4.268,2.164 3.987,2.359 3.664,2.5 3.342,2.641 2.997,2.71 2.632,2.71 2.261,2.71 1.913,2.639 1.59,2.495 1.268,2.352 0.986,2.156 0.749,1.908 0.511,1.66 0.326,1.371 0.195,1.042 0.065,0.713 0,0.365 0,0 m -0.979,0 c 0,0.489 0.093,0.952 0.28,1.39 0.185,0.436 0.445,0.823 0.777,1.159 C 0.411,2.885 0.794,3.147 1.229,3.337 1.662,3.525 2.13,3.62 2.632,3.62 3.121,3.62 3.584,3.525 4.021,3.337 4.458,3.147 4.845,2.885 5.181,2.549 5.517,2.213 5.779,1.826 5.969,1.39 6.158,0.952 6.252,0.486 6.252,-0.01 6.252,-0.506 6.158,-0.972 5.969,-1.409 5.779,-1.846 5.519,-2.229 5.186,-2.559 4.854,-2.888 4.468,-3.146 4.031,-3.332 3.594,-3.518 3.128,-3.61 2.632,-3.61 c -0.502,0 -0.97,0.09 -1.403,0.273 -0.435,0.183 -0.818,0.44 -1.151,0.769 -0.332,0.329 -0.592,0.711 -0.777,1.144 -0.187,0.434 -0.28,0.908 -0.28,1.424"
   style="fill:#ffffff;fill-opacity:1;fill-rule:nonzero;stroke:none"
   transform="matrix(0.40755522,0,0,-0.35992265,43.953258,48.107414)"
   clip-path="url(#clipPath161)" />
<path
   id="path162"
   d="M 0,0 1.85,-2.975 H 0.754 l -1.889,2.946 z m -1.164,0.548 c 0.28,0 0.514,0.042 0.699,0.127 0.187,0.085 0.331,0.194 0.436,0.328 0.104,0.134 0.179,0.275 0.225,0.426 0.045,0.149 0.069,0.297 0.069,0.44 0,0.143 -0.025,0.29 -0.074,0.44 -0.048,0.15 -0.128,0.292 -0.235,0.425 -0.107,0.134 -0.248,0.244 -0.421,0.329 -0.173,0.084 -0.383,0.126 -0.631,0.126 H -2.191 V 0.548 Z M -1.262,4.1 c 0.359,0 0.69,-0.048 0.993,-0.142 C 0.034,3.863 0.299,3.723 0.523,3.537 0.749,3.352 0.925,3.121 1.052,2.848 1.18,2.573 1.243,2.26 1.243,1.908 1.243,1.627 1.202,1.354 1.12,1.086 1.039,0.818 0.905,0.575 0.72,0.357 0.533,0.139 0.289,-0.038 -0.015,-0.171 -0.317,-0.305 -0.694,-0.372 -1.145,-0.372 h -1.046 v -2.603 h -0.95 V 4.1 Z"
   style="fill:#ffffff;fill-opacity:1;fill-rule:nonzero;stroke:none"
   transform="matrix(0.40755522,0,0,-0.35992265,48.431598,48.308104)"
   clip-path="url(#clipPath163)" />
<path
   id="path164"
   d="M 0,0 1.85,-2.975 H 0.754 l -1.889,2.946 z m -1.164,0.548 c 0.28,0 0.514,0.042 0.699,0.127 0.187,0.085 0.331,0.194 0.436,0.328 0.104,0.134 0.179,0.275 0.225,0.426 0.045,0.149 0.069,0.297 0.069,0.44 0,0.143 -0.025,0.29 -0.074,0.44 -0.048,0.15 -0.128,0.292 -0.235,0.425 -0.107,0.134 -0.248,0.244 -0.421,0.329 -0.173,0.084 -0.383,0.126 -0.631,0.126 H -2.191 V 0.548 Z M -1.262,4.1 c 0.359,0 0.69,-0.048 0.993,-0.142 C 0.034,3.863 0.299,3.723 0.523,3.537 0.749,3.352 0.925,3.121 1.052,2.848 1.18,2.573 1.243,2.26 1.243,1.908 1.243,1.627 1.202,1.354 1.12,1.086 1.039,0.818 0.905,0.575 0.72,0.357 0.533,0.139 0.289,-0.038 -0.015,-0.171 -0.317,-0.305 -0.694,-0.372 -1.145,-0.372 h -1.046 v -2.603 h -0.95 V 4.1 Z"
   style="fill:#ffffff;fill-opacity:1;fill-rule:nonzero;stroke:none"
   transform="matrix(0.40755522,0,0,-0.35992265,51.059628,48.308104)"
   clip-path="url(#clipPath165)" />
<path
   id="path166"
   d="m 161.166,128.077 h 0.949 v -7.074 h -0.949 z"
   style="fill:#ffffff;fill-opacity:1;fill-rule:nonzero;stroke:none"
   transform="matrix(0.40755522,0,0,-0.35992265,-13.276458,92.930457)"
   clip-path="url(#clipPath167)" />
<path
   id="path168"
   d="m 0,0 -5.47,5.548 0.275,-0.069 0.019,-5.254 h -0.949 v 7.289 h 0.049 L -0.675,1.946 -0.891,1.996 -0.91,7.299 H 0.039 V 0 Z"
   style="fill:#ffffff;fill-opacity:1;fill-rule:nonzero;stroke:none"
   transform="matrix(0.40755522,0,0,-0.35992265,56.120238,49.459564)"
   clip-path="url(#clipPath169)" />
<path
   id="path170"
   d="M 0,0 C 0,-0.378 0.066,-0.729 0.2,-1.052 0.334,-1.375 0.523,-1.66 0.769,-1.908 1.013,-2.156 1.293,-2.35 1.609,-2.49 1.926,-2.631 2.271,-2.7 2.642,-2.7 c 0.372,0 0.715,0.069 1.032,0.21 0.316,0.14 0.594,0.333 0.832,0.577 0.238,0.245 0.426,0.53 0.562,0.856 0.137,0.327 0.206,0.675 0.206,1.047 0,0.378 -0.069,0.731 -0.206,1.057 C 4.932,1.373 4.744,1.662 4.506,1.913 4.268,2.164 3.987,2.359 3.664,2.5 3.342,2.641 2.997,2.71 2.632,2.71 2.261,2.71 1.913,2.639 1.59,2.495 1.268,2.352 0.986,2.156 0.749,1.908 0.511,1.66 0.326,1.371 0.195,1.042 0.065,0.713 0,0.365 0,0 m -0.979,0 c 0,0.489 0.093,0.952 0.28,1.39 0.185,0.436 0.445,0.823 0.777,1.159 C 0.411,2.885 0.794,3.147 1.229,3.337 1.662,3.525 2.13,3.62 2.632,3.62 3.121,3.62 3.584,3.525 4.021,3.337 4.458,3.147 4.845,2.885 5.181,2.549 5.517,2.213 5.779,1.826 5.969,1.39 6.158,0.952 6.252,0.486 6.252,-0.01 6.252,-0.506 6.158,-0.972 5.969,-1.409 5.779,-1.846 5.519,-2.229 5.186,-2.559 4.854,-2.888 4.468,-3.146 4.031,-3.332 3.594,-3.518 3.128,-3.61 2.632,-3.61 c -0.502,0 -0.97,0.09 -1.403,0.273 -0.435,0.183 -0.818,0.44 -1.151,0.769 -0.332,0.329 -0.592,0.711 -0.777,1.144 -0.187,0.434 -0.28,0.908 -0.28,1.424"
   style="fill:#ffffff;fill-opacity:1;fill-rule:nonzero;stroke:none"
   transform="matrix(0.40755522,0,0,-0.35992265,57.180908,48.107414)"
   clip-path="url(#clipPath171)" />
<path
   id="path172"
   d="M 0,0 H 2.632 L 2.945,-0.821 H -0.273 Z M -1.81,-2.681 1.272,4.687 H 1.331 L 4.423,-2.681 H 3.337 L 1.027,3.2 1.703,3.641 -0.871,-2.681 Z"
   style="fill:#ffffff;fill-opacity:1;fill-rule:nonzero;stroke:none"
   transform="matrix(0.40755522,0,0,-0.35992265,62.089878,48.413914)"
   clip-path="url(#clipPath173)" />
<path
   id="path174"
   d="M 0,0 2.329,-5.852 1.791,-5.743 3.992,0 H 5.117 L 1.996,-7.407 -1.135,0 Z"
   style="fill:#ffffff;fill-opacity:1;fill-rule:nonzero;stroke:none"
   transform="matrix(0.40755522,0,0,-0.35992265,64.255008,46.832564)"
   clip-path="url(#clipPath175)" />
<path
   id="path176"
   d="M 0,0 H 2.632 L 2.945,-0.821 H -0.273 Z M -1.81,-2.681 1.272,4.687 H 1.331 L 4.423,-2.681 H 3.337 L 1.027,3.2 1.703,3.641 -0.871,-2.681 Z"
   style="fill:#ffffff;fill-opacity:1;fill-rule:nonzero;stroke:none"
   transform="matrix(0.40755522,0,0,-0.35992265,67.002428,48.413914)"
   clip-path="url(#clipPath177)" />
<path
   id="path178"
   d="m 0,0 -5.47,5.548 0.275,-0.069 0.019,-5.254 h -0.949 v 7.289 h 0.049 L -0.675,1.946 -0.891,1.996 -0.91,7.299 H 0.039 V 0 Z"
   style="fill:#ffffff;fill-opacity:1;fill-rule:nonzero;stroke:none"
   transform="matrix(0.40755522,0,0,-0.35992265,71.843358,49.459564)"
   clip-path="url(#clipPath179)" />
<path
   id="path180"
   d="m 0,0 c 0.078,0.104 0.19,0.265 0.338,0.479 0.146,0.215 0.317,0.47 0.514,0.763 0.195,0.294 0.405,0.611 0.63,0.949 0.225,0.34 0.455,0.686 0.69,1.038 0.235,0.352 0.465,0.696 0.69,1.032 C 3.087,4.597 3.297,4.91 3.493,5.2 3.688,5.49 3.86,5.742 4.007,5.954 4.153,6.166 4.266,6.321 4.345,6.419 L 4.472,6.164 H 1.203 C 1.079,6.164 0.955,6.187 0.832,6.232 0.708,6.278 0.606,6.347 0.528,6.438 0.45,6.529 0.411,6.637 0.411,6.761 V 7.427 H 1.292 V 7.299 C 1.292,7.188 1.314,7.123 1.36,7.104 1.405,7.084 1.483,7.074 1.595,7.074 H 5.842 L 1.565,0.803 1.507,0.91 H 5.949 V 0 Z"
   style="fill:#ffffff;fill-opacity:1;fill-rule:nonzero;stroke:none"
   transform="matrix(0.40755522,0,0,-0.35992265,72.469428,49.378734)"
   clip-path="url(#clipPath181)" />
<path
   id="path182"
   d="M 0,0 H 2.632 L 2.945,-0.821 H -0.273 Z M -1.81,-2.681 1.272,4.687 H 1.331 L 4.423,-2.681 H 3.337 L 1.027,3.2 1.703,3.641 -0.871,-2.681 Z"
   style="fill:#ffffff;fill-opacity:1;fill-rule:nonzero;stroke:none"
   transform="matrix(0.40755522,0,0,-0.35992265,75.974628,48.413914)"
   clip-path="url(#clipPath183)" />
<path
   id="path184"
   d="m 0,0 h 1.145 c 0.384,0 0.742,0.059 1.071,0.176 0.329,0.117 0.617,0.287 0.861,0.509 0.244,0.221 0.436,0.494 0.572,0.817 0.137,0.322 0.206,0.692 0.206,1.11 0,0.431 -0.072,0.811 -0.215,1.14 C 3.496,4.081 3.301,4.357 3.053,4.579 2.805,4.801 2.524,4.969 2.211,5.083 1.898,5.197 1.572,5.254 1.232,5.254 H 0 Z m -0.949,-0.91 v 7.074 h 1.928 c 0.704,0 1.3,-0.106 1.79,-0.318 C 3.258,5.634 3.654,5.351 3.958,4.995 4.261,4.64 4.481,4.25 4.618,3.825 4.755,3.401 4.823,2.975 4.823,2.544 4.823,2.009 4.73,1.529 4.545,1.105 4.359,0.682 4.104,0.319 3.781,0.02 3.459,-0.28 3.087,-0.511 2.666,-0.671 2.245,-0.83 1.8,-0.91 1.331,-0.91 Z"
   style="fill:#ffffff;fill-opacity:1;fill-rule:nonzero;stroke:none"
   transform="matrix(0.40755522,0,0,-0.35992265,78.706118,49.051164)"
   clip-path="url(#clipPath185)" />
<path
   id="path186"
   d="M 0,0 C 0,-0.378 0.066,-0.729 0.2,-1.052 0.334,-1.375 0.523,-1.66 0.769,-1.908 1.013,-2.156 1.293,-2.35 1.609,-2.49 1.926,-2.631 2.271,-2.7 2.642,-2.7 c 0.372,0 0.715,0.069 1.032,0.21 0.316,0.14 0.594,0.333 0.832,0.577 0.238,0.245 0.426,0.53 0.562,0.856 0.137,0.327 0.206,0.675 0.206,1.047 0,0.378 -0.069,0.731 -0.206,1.057 C 4.932,1.373 4.744,1.662 4.506,1.913 4.268,2.164 3.987,2.359 3.664,2.5 3.342,2.641 2.997,2.71 2.632,2.71 2.261,2.71 1.913,2.639 1.59,2.495 1.268,2.352 0.986,2.156 0.749,1.908 0.511,1.66 0.326,1.371 0.195,1.042 0.065,0.713 0,0.365 0,0 m -0.979,0 c 0,0.489 0.093,0.952 0.28,1.39 0.185,0.436 0.445,0.823 0.777,1.159 C 0.411,2.885 0.794,3.147 1.229,3.337 1.662,3.525 2.13,3.62 2.632,3.62 3.121,3.62 3.584,3.525 4.021,3.337 4.458,3.147 4.845,2.885 5.181,2.549 5.517,2.213 5.779,1.826 5.969,1.39 6.158,0.952 6.252,0.486 6.252,-0.01 6.252,-0.506 6.158,-0.972 5.969,-1.409 5.779,-1.846 5.519,-2.229 5.186,-2.559 4.854,-2.888 4.468,-3.146 4.031,-3.332 3.594,-3.518 3.128,-3.61 2.632,-3.61 c -0.502,0 -0.97,0.09 -1.403,0.273 -0.435,0.183 -0.818,0.44 -1.151,0.769 -0.332,0.329 -0.592,0.711 -0.777,1.144 -0.187,0.434 -0.28,0.908 -0.28,1.424"
   style="fill:#ffffff;fill-opacity:1;fill-rule:nonzero;stroke:none"
   transform="matrix(0.40755522,0,0,-0.35992265,81.541118,48.107414)"
   clip-path="url(#clipPath187)" />
</g>
</svg>
