<?xml version="1.0" standalone="no"?>
<!DOCTYPE svg PUBLIC "-//W3C//DTD SVG 20010904//EN"
 "http://www.w3.org/TR/2001/REC-SVG-20010904/DTD/svg10.dtd">
<svg version="1.0" xmlns="http://www.w3.org/2000/svg"
 width="1482.000000pt" height="512.000000pt" viewBox="0 0 1482.000000 512.000000"
 preserveAspectRatio="xMidYMid meet">

<g transform="translate(0.000000,512.000000) scale(0.100000,-0.100000)"
fill="#000000" stroke="none">
<path d="M4 3853 c5 -1514 5 -1117 0 -2605 l-4 -1248 7410 0 7410 0 0 2560 0
2560 -3654 0 c-2651 0 -3657 -3 -3662 -11 -3 -6 -21 -17 -39 -25 -37 -15 -102
-3 -112 22 -4 12 -493 14 -3679 14 l-3674 0 4 -1267z m1715 778 c20 -6 65 -17
101 -26 36 -9 74 -20 85 -24 11 -5 40 -17 65 -27 78 -32 210 -112 282 -171
192 -157 326 -368 394 -623 25 -93 25 -386 0 -485 -78 -309 -231 -530 -521
-751 -85 -65 -345 -234 -359 -234 -10 0 -283 -173 -336 -213 -255 -192 -380
-372 -412 -595 -37 -256 85 -497 310 -610 110 -55 170 -66 322 -59 147 7 192
18 326 82 224 106 423 369 512 675 23 80 23 383 0 460 -9 30 -22 71 -28 91
-21 72 -99 215 -159 294 -33 43 -61 82 -61 86 0 12 121 109 135 109 37 0 168
-191 230 -336 142 -330 120 -739 -57 -1064 -177 -325 -468 -534 -814 -586
-108 -16 -121 -16 -227 0 -329 49 -554 237 -657 546 -27 81 -38 258 -21 352
26 151 87 287 187 420 115 153 262 275 524 433 314 190 378 231 465 295 412
305 564 715 425 1143 -75 229 -268 442 -499 549 -91 43 -100 46 -151 58 -214
52 -374 52 -565 0 -124 -34 -318 -148 -424 -250 l-51 -49 0 -795 c0 -438 2
-796 4 -796 2 0 38 36 81 79 148 152 291 238 515 309 76 24 263 36 377 24 131
-15 318 -70 337 -101 6 -9 -49 -63 -107 -105 -35 -26 -42 -28 -75 -18 -139 41
-366 51 -472 19 -30 -9 -71 -21 -90 -26 -148 -44 -330 -187 -423 -333 -65
-101 -98 -183 -132 -325 -9 -40 -23 -77 -30 -83 -8 -6 -42 -10 -81 -8 -62 3
-70 6 -81 28 -10 20 -13 254 -12 1100 1 591 4 1085 7 1096 9 27 71 97 147 164
180 156 410 260 650 291 74 9 314 2 364 -10z m2570 -1067 c81 -19 90 -22 174
-64 149 -75 262 -188 337 -337 41 -83 44 -91 64 -175 9 -38 16 -111 16 -169 0
-325 -193 -598 -505 -713 -112 -42 -319 -53 -425 -23 -158 44 -246 93 -346
191 -113 112 -163 190 -199 312 -9 33 -21 72 -26 88 -12 40 -11 250 2 300 65
254 198 425 407 528 46 23 116 49 155 59 93 23 259 24 346 3z m4941 -40 c14
-27 36 -75 49 -105 13 -30 36 -81 51 -114 15 -33 34 -76 43 -95 8 -19 31 -69
50 -110 41 -89 93 -203 112 -245 7 -16 27 -59 43 -95 16 -36 40 -87 52 -115
12 -27 36 -79 52 -115 34 -75 48 -105 79 -175 12 -27 35 -79 51 -115 44 -96
49 -111 42 -132 -5 -17 -15 -18 -106 -16 -77 2 -103 7 -109 18 -14 24 -111
241 -122 273 -6 16 -32 17 -351 17 l-345 0 -31 -66 c-16 -36 -30 -67 -30 -70
0 -2 -18 -43 -41 -90 l-41 -85 -101 3 c-96 3 -102 4 -105 24 -2 12 17 64 41
115 25 52 54 117 66 144 12 28 31 68 41 90 10 22 29 63 41 90 28 64 71 160
116 255 46 98 85 183 112 245 31 70 45 100 79 175 16 36 39 88 52 115 12 28
43 92 68 143 l45 93 36 -3 c32 -3 39 -8 61 -54z m1424 -29 c38 -44 119 -138
181 -210 228 -264 320 -370 330 -381 5 -6 21 -24 34 -40 14 -16 50 -58 80 -94
31 -35 70 -80 86 -99 17 -20 51 -58 77 -86 l48 -50 0 501 c0 375 3 503 12 512
15 15 161 16 189 2 19 -10 19 -29 19 -735 l0 -724 -22 -15 c-54 -38 -62 -32
-274 221 -110 130 -217 257 -239 283 -22 25 -58 68 -80 94 -22 27 -48 58 -59
70 -10 11 -35 41 -55 66 -20 25 -65 79 -101 121 -79 92 -151 177 -167 198 -10
13 -12 -92 -13 -499 0 -388 -3 -519 -12 -528 -16 -16 -180 -16 -196 0 -18 18
-17 1449 0 1466 7 7 30 12 53 10 35 -3 46 -11 109 -83z m2760 50 c132 -45 224
-104 311 -197 115 -122 164 -217 200 -387 33 -159 6 -345 -73 -491 -140 -257
-377 -400 -667 -403 -102 -1 -196 13 -237 34 -10 5 -24 9 -31 9 -7 0 -39 14
-72 31 -215 111 -340 269 -406 514 -19 69 -17 274 4 345 45 159 91 243 191
348 91 96 185 155 312 196 113 36 107 35 254 32 116 -3 146 -7 214 -31z
m-6980 -1 c24 -23 20 -43 -20 -109 -20 -33 -47 -78 -59 -100 -12 -22 -52 -91
-89 -154 -36 -62 -66 -115 -66 -116 0 -2 -34 -61 -76 -131 -42 -71 -86 -147
-99 -169 -45 -81 -134 -233 -159 -273 -14 -23 -26 -44 -26 -47 0 -2 -18 -34
-40 -70 -22 -36 -40 -70 -40 -75 0 -6 113 -10 309 -10 253 0 311 -3 320 -14 8
-9 11 -45 9 -98 l-3 -83 -475 0 -475 0 -3 41 c-3 34 5 54 48 122 27 45 50 84
50 87 0 2 24 44 53 92 72 119 150 250 174 293 44 78 132 229 171 293 23 37 42
69 42 71 0 2 34 61 75 130 41 69 73 126 72 126 -1 0 -138 1 -304 3 -289 2
-303 3 -317 22 -21 27 -21 133 0 163 l15 22 449 0 c394 0 450 -2 464 -16z
m1544 4 c20 -20 13 -58 -22 -116 -90 -151 -126 -213 -126 -217 0 -3 -18 -34
-40 -70 -22 -36 -40 -68 -40 -70 0 -3 -22 -41 -50 -85 -27 -44 -50 -82 -50
-85 0 -2 -18 -34 -40 -70 -22 -36 -40 -68 -40 -70 0 -3 -12 -24 -26 -47 -25
-39 -116 -196 -157 -268 -10 -19 -34 -60 -53 -91 -19 -31 -34 -59 -34 -63 0
-3 139 -6 309 -6 360 0 341 5 341 -96 0 -114 49 -104 -490 -104 l-470 0 -6 25
c-9 38 1 67 60 163 29 48 78 130 108 182 30 52 79 136 108 185 29 50 78 133
108 185 30 52 79 134 109 183 29 48 53 89 53 92 0 3 19 35 42 72 22 38 54 92
70 121 l29 52 -293 0 c-355 0 -338 -6 -338 109 0 46 5 82 12 89 17 17 909 17
926 0z m4277 -2178 c4 -6 65 -10 151 -10 79 0 144 -3 144 -7 0 -5 -35 -58 -78
-120 -152 -220 -177 -258 -184 -275 -7 -17 3 -18 138 -18 l145 0 -3 -26 -3
-26 -190 1 c-104 1 -190 3 -192 5 -2 1 55 91 127 199 71 107 130 198 130 201
0 3 -46 6 -103 6 -114 0 -147 12 -147 56 0 20 5 24 29 24 17 0 33 -4 36 -10z
m-1717 -22 c6 -13 37 -86 68 -163 31 -77 61 -144 65 -150 5 -5 9 -15 9 -22 0
-7 11 -36 25 -65 14 -28 25 -53 25 -55 0 -2 -15 -3 -34 -3 -31 0 -35 4 -59 60
l-26 60 -91 0 -91 0 -26 -59 c-19 -45 -31 -60 -49 -64 -14 -2 -26 -1 -29 3 -4
7 33 102 76 197 10 24 19 45 19 49 0 3 11 30 25 60 14 30 25 58 25 62 1 4 9
25 20 47 11 22 19 46 20 53 0 19 16 14 28 -10z m840 -49 c18 -39 32 -77 32
-83 0 -7 4 -16 9 -21 4 -6 23 -46 40 -90 18 -44 41 -99 51 -121 11 -23 22 -54
26 -68 6 -24 4 -26 -25 -26 -25 0 -34 6 -43 28 -6 15 -17 42 -25 60 l-14 32
-88 0 c-98 0 -98 0 -125 -72 -16 -43 -21 -48 -48 -48 -24 0 -29 3 -24 18 28
74 192 462 196 462 3 0 20 -32 38 -71z m1489 14 c14 -32 34 -77 44 -100 10
-24 19 -45 19 -48 0 -4 9 -26 20 -50 42 -92 90 -217 85 -224 -2 -4 -18 -6 -35
-3 -25 3 -32 10 -37 33 -3 16 -10 32 -14 35 -5 3 -9 13 -9 24 0 10 -7 21 -16
24 -22 8 -167 7 -180 -2 -6 -4 -20 -31 -30 -59 -17 -49 -21 -53 -51 -53 l-32
0 45 108 c25 59 71 167 101 240 31 72 58 132 60 132 2 0 16 -26 30 -57z
m-9147 34 c17 -8 25 -21 25 -37 0 -28 -13 -30 -82 -9 -55 17 -107 1 -156 -46
-86 -83 -68 -244 34 -295 46 -24 128 -26 170 -5 28 15 30 15 41 -10 10 -22 9
-28 -3 -36 -54 -35 -186 -35 -243 0 -79 50 -116 116 -116 212 0 104 56 194
142 229 34 13 159 12 188 -3z m468 -14 l-3 -28 -122 -3 -123 -3 0 -74 0 -75
110 0 110 0 0 -25 c0 -25 0 -25 -94 -25 -52 0 -101 -3 -110 -6 -13 -5 -16 -22
-16 -80 l0 -74 126 0 125 0 -3 -26 -3 -25 -150 0 -150 0 -3 235 -2 236 155 0
156 0 -3 -27z m303 -143 c89 -93 164 -168 167 -166 2 3 3 79 2 170 l-1 166 36
0 35 0 0 -240 c0 -132 -3 -240 -8 -240 -4 0 -81 74 -172 165 -91 91 -168 165
-172 165 -4 0 -9 -73 -10 -162 -3 -173 -1 -165 -48 -159 -13 1 -14 471 -1 471
5 0 82 -76 172 -170z m657 143 c-3 -26 -6 -28 -63 -33 l-60 -5 -3 -202 -2
-203 -30 0 -30 0 0 205 0 204 -62 3 c-60 3 -63 4 -66 31 l-3 27 161 0 161 0
-3 -27z m339 -1 c76 -54 83 -173 14 -236 -12 -11 -21 -24 -21 -29 0 -6 23 -46
50 -89 28 -44 48 -83 45 -87 -2 -5 -18 -6 -35 -2 -24 5 -41 22 -83 86 -50 77
-53 80 -94 83 l-43 3 0 -85 0 -86 -35 0 -35 0 0 236 0 236 103 -4 c87 -3 107
-7 134 -26z m511 8 c72 -38 116 -93 133 -166 32 -140 -64 -275 -207 -290 -79
-8 -132 8 -186 56 -61 53 -81 98 -81 180 0 99 45 174 132 220 51 27 159 27
209 0z m808 -14 c152 -110 150 -301 -5 -411 -39 -27 -50 -30 -125 -30 -63 0
-89 4 -111 19 -90 57 -129 121 -129 216 0 102 43 168 149 229 12 7 53 10 100
9 70 -3 85 -7 121 -32z m482 7 c-3 -27 -6 -28 -65 -31 l-63 -3 0 -203 c0 -111
-2 -205 -5 -208 -3 -3 -17 -3 -30 0 l-25 4 0 204 0 204 -60 0 -60 0 0 30 0 30
156 0 155 0 -3 -27z m407 8 c47 -21 99 -76 120 -128 18 -43 20 -141 3 -180
-21 -49 -69 -103 -112 -126 -58 -31 -174 -31 -232 0 -80 43 -124 118 -124 213
0 68 18 115 62 166 45 51 99 74 178 74 42 0 79 -7 105 -19z m435 13 c104 -21
144 -163 70 -248 -17 -19 -30 -36 -30 -40 0 -3 23 -42 50 -86 28 -44 50 -82
50 -85 0 -3 -15 -5 -33 -5 -29 0 -37 6 -67 57 -58 96 -77 113 -121 113 l-39 0
0 -86 0 -85 -30 3 -31 3 0 228 c0 125 1 229 1 232 0 7 142 6 180 -1z m493 -27
c67 -51 72 -164 10 -229 -30 -31 -29 -32 31 -127 25 -39 46 -73 46 -76 0 -3
-15 -5 -33 -5 -30 0 -37 7 -87 83 -53 79 -56 82 -97 85 l-43 3 0 -85 0 -86
-35 0 -35 0 0 236 0 236 104 -4 c94 -3 106 -6 139 -31z m267 -191 c0 -123 -2
-231 -5 -238 -4 -10 -16 -13 -35 -10 l-30 4 0 234 0 234 35 0 35 0 0 -224z
m307 63 c87 -88 160 -165 161 -170 2 -5 8 -9 13 -9 5 0 9 74 9 170 l0 170 30
0 30 0 0 -240 c0 -132 -3 -240 -8 -240 -4 0 -78 74 -165 165 -87 91 -165 165
-173 165 -11 0 -14 -28 -14 -160 l0 -160 -25 0 -25 0 0 235 c0 129 2 235 5
235 2 0 75 -72 162 -161z m719 132 c47 -28 68 -49 103 -111 9 -15 15 -55 15
-100 1 -67 -2 -80 -29 -120 -63 -93 -145 -130 -256 -115 -135 19 -232 178
-186 305 28 77 52 107 117 144 37 21 58 26 115 26 59 0 78 -5 121 -29z m881
17 c4 -7 27 -62 51 -123 24 -60 50 -124 58 -142 8 -17 14 -36 14 -43 0 -6 5
-10 12 -8 6 2 39 76 73 164 l61 159 38 3 c21 2 37 0 35 -5 -2 -5 -26 -60 -52
-123 -27 -63 -59 -137 -71 -165 -12 -27 -36 -83 -52 -122 -16 -40 -32 -73 -35
-73 -4 0 -10 11 -13 25 -4 14 -19 54 -35 88 -45 98 -151 356 -151 367 0 14 57
12 67 -2z m918 -40 c56 -63 277 -288 282 -288 1 0 3 77 3 170 l0 170 30 0 30
0 0 -247 0 -247 -171 177 c-95 98 -174 175 -177 172 -3 -2 -4 -74 -3 -159 2
-140 1 -156 -16 -164 -41 -21 -43 -11 -43 234 0 129 4 234 9 234 5 0 30 -24
56 -52z m1658 38 c151 -54 208 -256 106 -380 -50 -60 -99 -76 -227 -76 l-112
0 0 235 0 235 98 0 c54 -1 113 -7 135 -14z m622 -27 c131 -94 140 -271 20
-377 -68 -60 -135 -75 -230 -51 -90 23 -175 134 -175 229 0 46 37 133 72 169
57 58 93 71 183 69 75 -3 84 -6 130 -39z"/>
<path d="M3965 3341 c-90 -30 -153 -70 -222 -139 -109 -109 -157 -226 -157
-382 0 -159 45 -263 163 -381 104 -102 199 -146 341 -156 249 -17 471 139 555
387 23 68 20 242 -5 314 -59 172 -184 297 -356 356 -74 26 -244 26 -319 1z"/>
<path d="M9141 3118 c-20 -47 -49 -113 -83 -188 -34 -74 -48 -105 -79 -175
-12 -27 -32 -73 -45 -102 -13 -28 -24 -54 -24 -57 0 -3 115 -6 255 -6 140 0
255 2 255 5 0 3 -13 34 -29 68 -64 136 -101 219 -101 222 0 2 -15 36 -34 77
-18 40 -45 99 -60 131 -14 31 -29 57 -33 57 -5 0 -14 -15 -22 -32z"/>
<path d="M13030 3345 c-169 -53 -304 -185 -367 -362 -22 -61 -25 -260 -5 -313
38 -99 81 -168 143 -229 295 -296 782 -164 904 244 20 66 19 202 -1 273 -54
188 -207 342 -389 391 -56 15 -231 12 -285 -4z"/>
<path d="M10513 1218 c-6 -7 -18 -35 -28 -63 -10 -27 -23 -55 -28 -62 -5 -7
-6 -17 -2 -23 6 -10 117 -14 128 -4 5 5 -34 119 -52 152 -6 11 -9 11 -18 0z"/>
<path d="M11303 1152 c-17 -42 -29 -80 -26 -84 5 -9 117 -11 125 -2 7 6 -40
134 -56 151 -9 10 -19 -6 -43 -65z"/>
<path d="M12827 1223 c-9 -14 -57 -145 -57 -154 0 -12 117 -12 125 0 6 10 -40
140 -54 154 -5 5 -11 5 -14 0z"/>
<path d="M5320 1210 l0 -90 54 0 c77 0 106 25 106 90 0 65 -29 90 -106 90
l-54 0 0 -90z"/>
<path d="M5830 1294 c-73 -32 -112 -90 -114 -169 -1 -67 36 -131 94 -164 55
-31 140 -27 189 9 34 23 81 108 81 145 0 72 -48 146 -115 176 -48 22 -88 23
-135 3z"/>
<path d="M6610 1294 c-52 -23 -88 -61 -106 -116 -19 -58 -14 -94 22 -155 31
-53 85 -83 151 -83 63 0 111 26 147 80 24 35 29 54 29 99 0 85 -38 143 -115
176 -46 19 -83 19 -128 -1z"/>
<path d="M7535 1299 c-45 -13 -103 -74 -116 -122 -13 -50 -6 -118 18 -154 9
-14 35 -39 57 -54 49 -36 132 -40 182 -10 106 65 124 210 36 295 -51 51 -109
65 -177 45z"/>
<path d="M8010 1210 l0 -90 54 0 c74 0 111 30 111 88 0 64 -33 92 -107 92
l-58 0 0 -90z"/>
<path d="M8450 1210 l0 -90 51 0 c62 0 87 13 104 53 30 73 -13 127 -101 127
l-54 0 0 -90z"/>
<path d="M9730 1294 c-76 -33 -110 -86 -110 -171 0 -108 71 -182 173 -183 88
0 151 48 177 138 24 78 -24 177 -104 213 -49 22 -89 23 -136 3z"/>
<path d="M13205 1288 c-3 -7 -4 -88 -3 -178 l3 -165 50 -3 c131 -9 209 60 208
184 -1 112 -57 166 -179 172 -57 3 -75 1 -79 -10z"/>
<path d="M13784 1291 c-64 -29 -97 -80 -102 -156 -8 -118 64 -195 180 -195
100 0 170 74 170 179 0 87 -36 143 -114 176 -49 20 -84 19 -134 -4z"/>
<path d="M7385 5110 c3 -5 21 -10 40 -10 19 0 37 5 40 10 4 6 -12 10 -40 10
-28 0 -44 -4 -40 -10z"/>
</g>
</svg>
